<mxfile host="app.diagrams.net" modified="2024-01-09T10:14:29.396Z" agent="Mozilla/5.0 (Macintosh; Intel Mac OS X 10_15_7) AppleWebKit/537.36 (KHTML, like Gecko) Chrome/120.0.0.0 Safari/537.36" etag="9O28SuVjKYAYwTrQLtNK" version="22.1.17" type="github">
  <diagram name="Page-1" id="099fd60b-425b-db50-ffb0-6b813814b670">
    <mxGraphModel dx="901" dy="522" grid="1" gridSize="10" guides="1" tooltips="1" connect="1" arrows="1" fold="1" page="1" pageScale="1" pageWidth="850" pageHeight="1100" background="none" math="0" shadow="0">
      <root>
        <mxCell id="0" />
        <mxCell id="1" parent="0" />
        <mxCell id="1dd3ca9b2b35b949-1" value="" style="whiteSpace=wrap;html=1;rounded=0;shadow=0;comic=0;labelBackgroundColor=none;strokeWidth=1;fontFamily=Verdana;fontSize=12;align=center;" parent="1" vertex="1">
          <mxGeometry x="80" y="50" width="400" height="900" as="geometry" />
        </mxCell>
        <mxCell id="10ed09ecd0ef054a-2" value="80x40" style="shape=rect;dashed=0;shadow=0;html=1;whiteSpace=wrap;rotation=270;rounded=0;comic=0;labelBackgroundColor=none;strokeWidth=1;fontFamily=Verdana;fontSize=12;align=center;" parent="1" vertex="1">
          <mxGeometry x="-247" y="378" width="695" height="40" as="geometry" />
        </mxCell>
        <mxCell id="10ed09ecd0ef054a-3" value="80x40" style="shape=rect;dashed=0;shadow=0;html=1;whiteSpace=wrap;rotation=270;rounded=0;comic=0;labelBackgroundColor=none;strokeWidth=1;fontFamily=Verdana;fontSize=12;align=center;" parent="1" vertex="1">
          <mxGeometry x="113" y="378" width="695" height="40" as="geometry" />
        </mxCell>
        <mxCell id="10ed09ecd0ef054a-4" value="60x40" style="shape=rect;dashed=0;shadow=0;html=1;whiteSpace=wrap;rounded=0;comic=0;labelBackgroundColor=none;strokeWidth=1;fontFamily=Verdana;fontSize=12;lign=center;" parent="1" vertex="1">
          <mxGeometry x="121" y="50" width="319" height="30" as="geometry" />
        </mxCell>
        <mxCell id="10ed09ecd0ef054a-5" value="" style="verticalLabelPosition=bottom;dashed=0;shadow=0;html=1;align=center;verticalAlign=top;strokeWidth=1;shape=mxgraph.cabinets.motorized_switch_3p;rounded=0;comic=0;labelBackgroundColor=none;fontFamily=Verdana;fontSize=12" parent="1" vertex="1">
          <mxGeometry x="330" y="650" width="85" height="70" as="geometry" />
        </mxCell>
        <mxCell id="10ed09ecd0ef054a-6" value="" style="whiteSpace=wrap;html=1;rounded=0;shadow=0;comic=0;labelBackgroundColor=none;strokeWidth=1;fontFamily=Verdana;fontSize=12;align=center;rotation=0;" parent="1" vertex="1">
          <mxGeometry x="100" y="910" width="361" height="12" as="geometry" />
        </mxCell>
        <mxCell id="10ed09ecd0ef054a-7" value="" style="whiteSpace=wrap;html=1;rounded=0;shadow=0;comic=0;labelBackgroundColor=none;strokeWidth=1;fontFamily=Verdana;fontSize=12;align=center;rotation=0;" parent="1" vertex="1">
          <mxGeometry x="100" y="890" width="361" height="12" as="geometry" />
        </mxCell>
        <mxCell id="10ed09ecd0ef054a-8" value="" style="whiteSpace=wrap;html=1;rounded=0;shadow=0;comic=0;labelBackgroundColor=none;strokeWidth=1;fontFamily=Verdana;fontSize=12;align=center;rotation=0;" parent="1" vertex="1">
          <mxGeometry x="100" y="870" width="361" height="12" as="geometry" />
        </mxCell>
        <mxCell id="10ed09ecd0ef054a-9" value="" style="whiteSpace=wrap;html=1;rounded=0;shadow=0;comic=0;labelBackgroundColor=none;strokeWidth=1;fontFamily=Verdana;fontSize=12;align=center;rotation=0;" parent="1" vertex="1">
          <mxGeometry x="100" y="850" width="361" height="12" as="geometry" />
        </mxCell>
        <mxCell id="10ed09ecd0ef054a-10" value="" style="ellipse;whiteSpace=wrap;html=1;rounded=0;shadow=0;comic=0;labelBackgroundColor=none;strokeWidth=1;fontFamily=Verdana;fontSize=12;align=center;dashed=1;" parent="1" vertex="1">
          <mxGeometry x="100" y="910" width="12" height="12" as="geometry" />
        </mxCell>
        <mxCell id="10ed09ecd0ef054a-11" value="" style="ellipse;whiteSpace=wrap;html=1;rounded=0;shadow=0;comic=0;labelBackgroundColor=none;strokeWidth=1;fontFamily=Verdana;fontSize=12;align=center;dashed=1;" parent="1" vertex="1">
          <mxGeometry x="275" y="910" width="12" height="12" as="geometry" />
        </mxCell>
        <mxCell id="10ed09ecd0ef054a-12" value="" style="ellipse;whiteSpace=wrap;html=1;rounded=0;shadow=0;comic=0;labelBackgroundColor=none;strokeWidth=1;fontFamily=Verdana;fontSize=12;align=center;dashed=1;" parent="1" vertex="1">
          <mxGeometry x="449" y="910" width="12" height="12" as="geometry" />
        </mxCell>
        <mxCell id="10ed09ecd0ef054a-16" value="" style="ellipse;whiteSpace=wrap;html=1;rounded=0;shadow=0;comic=0;labelBackgroundColor=none;strokeWidth=1;fontFamily=Verdana;fontSize=12;align=center;dashed=1;" parent="1" vertex="1">
          <mxGeometry x="100" y="890" width="12" height="12" as="geometry" />
        </mxCell>
        <mxCell id="10ed09ecd0ef054a-17" value="" style="ellipse;whiteSpace=wrap;html=1;rounded=0;shadow=0;comic=0;labelBackgroundColor=none;strokeWidth=1;fontFamily=Verdana;fontSize=12;align=center;dashed=1;" parent="1" vertex="1">
          <mxGeometry x="275" y="890" width="12" height="12" as="geometry" />
        </mxCell>
        <mxCell id="10ed09ecd0ef054a-18" value="" style="ellipse;whiteSpace=wrap;html=1;rounded=0;shadow=0;comic=0;labelBackgroundColor=none;strokeWidth=1;fontFamily=Verdana;fontSize=12;align=center;dashed=1;" parent="1" vertex="1">
          <mxGeometry x="449" y="890" width="12" height="12" as="geometry" />
        </mxCell>
        <mxCell id="10ed09ecd0ef054a-19" value="" style="ellipse;whiteSpace=wrap;html=1;rounded=0;shadow=0;comic=0;labelBackgroundColor=none;strokeWidth=1;fontFamily=Verdana;fontSize=12;align=center;dashed=1;" parent="1" vertex="1">
          <mxGeometry x="100" y="870" width="12" height="12" as="geometry" />
        </mxCell>
        <mxCell id="10ed09ecd0ef054a-20" value="" style="ellipse;whiteSpace=wrap;html=1;rounded=0;shadow=0;comic=0;labelBackgroundColor=none;strokeWidth=1;fontFamily=Verdana;fontSize=12;align=center;dashed=1;" parent="1" vertex="1">
          <mxGeometry x="275" y="870" width="12" height="12" as="geometry" />
        </mxCell>
        <mxCell id="10ed09ecd0ef054a-21" value="" style="ellipse;whiteSpace=wrap;html=1;rounded=0;shadow=0;comic=0;labelBackgroundColor=none;strokeWidth=1;fontFamily=Verdana;fontSize=12;align=center;dashed=1;" parent="1" vertex="1">
          <mxGeometry x="449" y="870" width="12" height="12" as="geometry" />
        </mxCell>
        <mxCell id="10ed09ecd0ef054a-22" value="" style="ellipse;whiteSpace=wrap;html=1;rounded=0;shadow=0;comic=0;labelBackgroundColor=none;strokeWidth=1;fontFamily=Verdana;fontSize=12;align=center;dashed=1;" parent="1" vertex="1">
          <mxGeometry x="100" y="850" width="12" height="12" as="geometry" />
        </mxCell>
        <mxCell id="10ed09ecd0ef054a-23" value="" style="ellipse;whiteSpace=wrap;html=1;rounded=0;shadow=0;comic=0;labelBackgroundColor=none;strokeWidth=1;fontFamily=Verdana;fontSize=12;align=center;dashed=1;" parent="1" vertex="1">
          <mxGeometry x="275" y="850" width="12" height="12" as="geometry" />
        </mxCell>
        <mxCell id="10ed09ecd0ef054a-24" value="" style="ellipse;whiteSpace=wrap;html=1;rounded=0;shadow=0;comic=0;labelBackgroundColor=none;strokeWidth=1;fontFamily=Verdana;fontSize=12;align=center;dashed=1;" parent="1" vertex="1">
          <mxGeometry x="449" y="850" width="12" height="12" as="geometry" />
        </mxCell>
        <mxCell id="10ed09ecd0ef054a-25" value="" style="whiteSpace=wrap;html=1;rounded=0;shadow=0;comic=0;labelBackgroundColor=none;strokeWidth=1;ontFamily=Verdana;fontSize=12;align=center;rotation=-90;" parent="1" vertex="1">
          <mxGeometry x="315" y="778" width="157" height="12" as="geometry" />
        </mxCell>
        <mxCell id="10ed09ecd0ef054a-26" value="" style="whiteSpace=wrap;html=1;rounded=0;shadow=0;comic=0;labelBackgroundColor=none;strokeWidth=1;ontFamily=Verdana;fontSize=12;align=center;rotation=-90;" parent="1" vertex="1">
          <mxGeometry x="280" y="788" width="177" height="12" as="geometry" />
        </mxCell>
        <mxCell id="10ed09ecd0ef054a-27" value="" style="whiteSpace=wrap;html=1;rounded=0;shadow=0;comic=0;labelBackgroundColor=none;strokeWidth=1;ontFamily=Verdana;fontSize=12;align=center;rotation=-90;" parent="1" vertex="1">
          <mxGeometry x="245" y="798" width="197" height="12" as="geometry" />
        </mxCell>
        <mxCell id="10ed09ecd0ef054a-28" value="" style="whiteSpace=wrap;html=1;rounded=0;shadow=0;comic=0;labelBackgroundColor=none;strokeWidth=1;fontFamily=Verdana;fontSize=12;align=center;rotation=-90;" parent="1" vertex="1">
          <mxGeometry x="264" y="579" width="159" height="12" as="geometry" />
        </mxCell>
        <mxCell id="10ed09ecd0ef054a-29" value="" style="whiteSpace=wrap;html=1;rounded=0;shadow=0;comic=0;labelBackgroundColor=none;strokeWidth=1;fontFamily=Verdana;fontSize=12;align=center;rotation=-90;" parent="1" vertex="1">
          <mxGeometry x="289" y="579" width="159" height="12" as="geometry" />
        </mxCell>
        <mxCell id="10ed09ecd0ef054a-30" value="" style="whiteSpace=wrap;html=1;rounded=0;shadow=0;comic=0;labelBackgroundColor=none;strokeWidth=1;fontFamily=Verdana;fontSize=12;align=center;rotation=-90;" parent="1" vertex="1">
          <mxGeometry x="314" y="579" width="159" height="12" as="geometry" />
        </mxCell>
        <mxCell id="10ed09ecd0ef054a-31" value="60x40" style="shape=rect;dashed=0;shadow=0;html=1;whiteSpace=wrap;rounded=0;comic=0;labelBackgroundColor=none;strokeWidth=1;fontFamily=Verdana;fontSize=12;align=center;" parent="1" vertex="1">
          <mxGeometry x="121" y="716" width="319" height="30" as="geometry" />
        </mxCell>
        <mxCell id="10ed09ecd0ef054a-32" value="60x40" style="shape=rect;dashed=0;shadow=0;html=1;whiteSpace=wrap;rounded=0;comic=0;labelBackgroundColor=none;strokeWidth=1;fontFamily=Verdana;fontSize=12;align=center;" parent="1" vertex="1">
          <mxGeometry x="121" y="460" width="319" height="30" as="geometry" />
        </mxCell>
        <mxCell id="10ed09ecd0ef054a-33" value="60x40" style="shape=rect;dashed=0;shadow=0;html=1;whiteSpace=wrap;rounded=0;comic=0;labelBackgroundColor=none;strokeWidth=1;fontFamily=Verdana;fontSize=12;align=center;" parent="1" vertex="1">
          <mxGeometry x="120.5" y="370" width="319" height="30" as="geometry" />
        </mxCell>
        <mxCell id="10ed09ecd0ef054a-34" value="60x40" style="shape=rect;dashed=0;shadow=0;html=1;whiteSpace=wrap;rounded=0;comic=0;labelBackgroundColor=none;strokeWidth=1;fontFamily=Verdana;fontSize=12;align=center;" parent="1" vertex="1">
          <mxGeometry x="121" y="150" width="319" height="30" as="geometry" />
        </mxCell>
        <mxCell id="10ed09ecd0ef054a-35" value="" style="verticalLabelPosition=bottom;dashed=0;shadow=0;html=1;align=center;verticalAlign=top;strokeWidth=1;shape=mxgraph.cabinets.cb_3p;rounded=0;comic=0;labelBackgroundColor=none;fontFamily=Verdana;fontSize=12" parent="1" vertex="1">
          <mxGeometry x="130" y="90" width="27" height="50" as="geometry" />
        </mxCell>
        <mxCell id="10ed09ecd0ef054a-39" value="" style="verticalLabelPosition=bottom;dashed=0;shadow=0;html=1;align=center;verticalAlign=top;strokeWidth=1;shape=mxgraph.cabinets.cb_3p;rounded=0;comic=0;labelBackgroundColor=none;fontFamily=Verdana;fontSize=12" parent="1" vertex="1">
          <mxGeometry x="177" y="90" width="27" height="50" as="geometry" />
        </mxCell>
        <mxCell id="10ed09ecd0ef054a-40" value="" style="verticalLabelPosition=bottom;dashed=0;shadow=0;html=1;align=center;verticalAlign=top;strokeWidth=1;shape=mxgraph.cabinets.cb_3p;rounded=0;comic=0;labelBackgroundColor=none;fontFamily=Verdana;fontSize=12" parent="1" vertex="1">
          <mxGeometry x="225" y="90" width="27" height="50" as="geometry" />
        </mxCell>
        <mxCell id="10ed09ecd0ef054a-41" value="" style="verticalLabelPosition=bottom;dashed=0;shadow=0;html=1;align=center;verticalAlign=top;strokeWidth=1;shape=mxgraph.cabinets.cb_3p;rounded=0;comic=0;labelBackgroundColor=none;fontFamily=Verdana;fontSize=12" parent="1" vertex="1">
          <mxGeometry x="275" y="90" width="27" height="50" as="geometry" />
        </mxCell>
        <mxCell id="10ed09ecd0ef054a-43" value="" style="verticalLabelPosition=bottom;dashed=0;shadow=0;html=1;align=center;verticalAlign=top;strokeWidth=1;shape=mxgraph.cabinets.cb_3p;rounded=0;comic=0;labelBackgroundColor=none;fontFamily=Verdana;fontSize=12" parent="1" vertex="1">
          <mxGeometry x="378" y="90" width="27" height="50" as="geometry" />
        </mxCell>
        <mxCell id="10ed09ecd0ef054a-47" value="Node1" style="verticalLabelPosition=bottom;dashed=0;shadow=0;html=1;align=center;verticalAlign=top;strokeWidth=1;shape=mxgraph.cabinets.contactor_32_125a;rounded=0;comic=0;labelBackgroundColor=none;fontFamily=Verdana;fontSize=12" parent="1" vertex="1">
          <mxGeometry x="133.5" y="290" width="30" height="50" as="geometry" />
        </mxCell>
        <mxCell id="mRYTLFVXUEYdrN0TS-By-2" value="" style="edgeStyle=orthogonalEdgeStyle;rounded=0;orthogonalLoop=1;jettySize=auto;html=1;entryX=0.661;entryY=0.414;entryDx=0;entryDy=0;entryPerimeter=0;" parent="1" source="10ed09ecd0ef054a-52" target="10ed09ecd0ef054a-96" edge="1">
          <mxGeometry relative="1" as="geometry">
            <Array as="points">
              <mxPoint x="276" y="420" />
              <mxPoint x="391" y="420" />
              <mxPoint x="391" y="422" />
              <mxPoint x="384" y="422" />
            </Array>
          </mxGeometry>
        </mxCell>
        <mxCell id="10ed09ecd0ef054a-52" value="Node2" style="verticalLabelPosition=bottom;dashed=0;shadow=0;html=1;align=center;verticalAlign=top;strokeWidth=1;shape=mxgraph.cabinets.contactor_32_125a;rounded=0;comic=0;labelBackgroundColor=none;fontFamily=Verdana;fontSize=12" parent="1" vertex="1">
          <mxGeometry x="261" y="290" width="30" height="50" as="geometry" />
        </mxCell>
        <mxCell id="10ed09ecd0ef054a-56" value="Node3" style="verticalLabelPosition=bottom;dashed=0;shadow=0;html=1;align=center;verticalAlign=top;strokeWidth=1;shape=mxgraph.cabinets.contactor_32_125a;rounded=0;comic=0;labelBackgroundColor=none;fontFamily=Verdana;fontSize=12" parent="1" vertex="1">
          <mxGeometry x="396" y="290" width="30" height="50" as="geometry" />
        </mxCell>
        <mxCell id="10ed09ecd0ef054a-57" value="60x40" style="shape=rect;dashed=0;shadow=0;html=1;whiteSpace=wrap;rounded=0;comic=0;labelBackgroundColor=none;strokeWidth=1;fontFamily=Verdana;fontSize=12;align=center;" parent="1" vertex="1">
          <mxGeometry x="120.5" y="260" width="319.5" height="20" as="geometry" />
        </mxCell>
        <mxCell id="10ed09ecd0ef054a-58" value="DNS" style="verticalLabelPosition=bottom;dashed=0;shadow=0;html=1;align=center;verticalAlign=top;strokeWidth=1;shape=mxgraph.cabinets.motor_cb_1_32a;rounded=0;comic=0;labelBackgroundColor=none;fontFamily=Verdana;fontColor=#000000;" parent="1" vertex="1">
          <mxGeometry x="135" y="191" width="27" height="43" as="geometry" />
        </mxCell>
        <mxCell id="10ed09ecd0ef054a-59" value="NTP" style="verticalLabelPosition=bottom;dashed=0;shadow=0;html=1;align=center;verticalAlign=top;strokeWidth=1;shape=mxgraph.cabinets.motor_cb_1_32a;rounded=0;comic=0;labelBackgroundColor=none;fontFamily=Verdana;fontColor=#000000;" parent="1" vertex="1">
          <mxGeometry x="212" y="191" width="27" height="43" as="geometry" />
        </mxCell>
        <mxCell id="10ed09ecd0ef054a-64" value="Registry" style="verticalLabelPosition=bottom;dashed=0;shadow=0;html=1;align=center;verticalAlign=top;strokeWidth=1;shape=mxgraph.cabinets.motor_cb_1_32a;rounded=0;comic=0;labelBackgroundColor=none;fontFamily=Verdana;fontColor=#000000;" parent="1" vertex="1">
          <mxGeometry x="291" y="191" width="27" height="43" as="geometry" />
        </mxCell>
        <mxCell id="10ed09ecd0ef054a-65" value="Bastion" style="verticalLabelPosition=bottom;dashed=0;shadow=0;html=1;align=center;verticalAlign=top;strokeWidth=1;shape=mxgraph.cabinets.motor_cb_1_32a;rounded=0;comic=0;labelBackgroundColor=none;fontFamily=Verdana;fontColor=#000000;" parent="1" vertex="1">
          <mxGeometry x="383" y="191" width="27" height="43" as="geometry" />
        </mxCell>
        <mxCell id="10ed09ecd0ef054a-68" value="" style="verticalLabelPosition=bottom;dashed=0;shadow=0;html=1;align=center;verticalAlign=top;strokeWidth=1;shape=mxgraph.cabinets.cb_1p;rounded=0;comic=0;labelBackgroundColor=none;fontFamily=Verdana;fontSize=12" parent="1" vertex="1">
          <mxGeometry x="126" y="400" width="9" height="50" as="geometry" />
        </mxCell>
        <mxCell id="10ed09ecd0ef054a-69" value="" style="verticalLabelPosition=bottom;dashed=0;shadow=0;html=1;align=center;verticalAlign=top;strokeWidth=1;shape=mxgraph.cabinets.cb_1p;rounded=0;comic=0;labelBackgroundColor=none;fontFamily=Verdana;fontSize=12" parent="1" vertex="1">
          <mxGeometry x="135" y="400" width="9" height="50" as="geometry" />
        </mxCell>
        <mxCell id="10ed09ecd0ef054a-70" value="" style="verticalLabelPosition=bottom;dashed=0;shadow=0;html=1;align=center;verticalAlign=top;strokeWidth=1;shape=mxgraph.cabinets.cb_1p;rounded=0;comic=0;labelBackgroundColor=none;fontFamily=Verdana;fontSize=12" parent="1" vertex="1">
          <mxGeometry x="144" y="400" width="9" height="50" as="geometry" />
        </mxCell>
        <mxCell id="10ed09ecd0ef054a-71" value="" style="verticalLabelPosition=bottom;dashed=0;shadow=0;html=1;align=center;verticalAlign=top;strokeWidth=1;shape=mxgraph.cabinets.cb_1p;rounded=0;comic=0;labelBackgroundColor=none;fontFamily=Verdana;fontSize=12" parent="1" vertex="1">
          <mxGeometry x="153" y="400" width="9" height="50" as="geometry" />
        </mxCell>
        <mxCell id="10ed09ecd0ef054a-72" value="" style="verticalLabelPosition=bottom;dashed=0;shadow=0;html=1;align=center;verticalAlign=top;strokeWidth=1;shape=mxgraph.cabinets.cb_1p;rounded=0;comic=0;labelBackgroundColor=none;fontFamily=Verdana;fontSize=12" parent="1" vertex="1">
          <mxGeometry x="162" y="400" width="9" height="50" as="geometry" />
        </mxCell>
        <mxCell id="10ed09ecd0ef054a-73" value="" style="verticalLabelPosition=bottom;dashed=0;shadow=0;html=1;align=center;verticalAlign=top;strokeWidth=1;shape=mxgraph.cabinets.cb_1p;rounded=0;comic=0;labelBackgroundColor=none;fontFamily=Verdana;fontSize=12" parent="1" vertex="1">
          <mxGeometry x="171" y="400" width="9" height="50" as="geometry" />
        </mxCell>
        <mxCell id="10ed09ecd0ef054a-74" value="" style="verticalLabelPosition=bottom;dashed=0;shadow=0;html=1;align=center;verticalAlign=top;strokeWidth=1;shape=mxgraph.cabinets.cb_1p;rounded=0;comic=0;labelBackgroundColor=none;fontFamily=Verdana;fontSize=12" parent="1" vertex="1">
          <mxGeometry x="180" y="400" width="9" height="50" as="geometry" />
        </mxCell>
        <mxCell id="10ed09ecd0ef054a-75" value="" style="verticalLabelPosition=bottom;dashed=0;shadow=0;html=1;align=center;verticalAlign=top;strokeWidth=1;shape=mxgraph.cabinets.cb_1p;rounded=0;comic=0;labelBackgroundColor=none;fontFamily=Verdana;fontSize=12" parent="1" vertex="1">
          <mxGeometry x="189" y="400" width="9" height="50" as="geometry" />
        </mxCell>
        <mxCell id="10ed09ecd0ef054a-76" value="" style="verticalLabelPosition=bottom;dashed=0;shadow=0;html=1;align=center;verticalAlign=top;strokeWidth=1;shape=mxgraph.cabinets.cb_1p;rounded=0;comic=0;labelBackgroundColor=none;fontFamily=Verdana;fontSize=12" parent="1" vertex="1">
          <mxGeometry x="198" y="400" width="9" height="50" as="geometry" />
        </mxCell>
        <mxCell id="10ed09ecd0ef054a-77" value="" style="verticalLabelPosition=bottom;dashed=0;shadow=0;html=1;align=center;verticalAlign=top;strokeWidth=1;shape=mxgraph.cabinets.cb_1p;rounded=0;comic=0;labelBackgroundColor=none;fontFamily=Verdana;fontSize=12" parent="1" vertex="1">
          <mxGeometry x="207" y="400" width="9" height="50" as="geometry" />
        </mxCell>
        <mxCell id="10ed09ecd0ef054a-78" value="" style="verticalLabelPosition=bottom;dashed=0;shadow=0;html=1;align=center;verticalAlign=top;strokeWidth=1;shape=mxgraph.cabinets.cb_1p;rounded=0;comic=0;labelBackgroundColor=none;fontFamily=Verdana;fontSize=12" parent="1" vertex="1">
          <mxGeometry x="216" y="400" width="9" height="50" as="geometry" />
        </mxCell>
        <mxCell id="10ed09ecd0ef054a-79" value="" style="verticalLabelPosition=bottom;dashed=0;shadow=0;html=1;align=center;verticalAlign=top;strokeWidth=1;shape=mxgraph.cabinets.cb_1p;rounded=0;comic=0;labelBackgroundColor=none;fontFamily=Verdana;fontSize=12" parent="1" vertex="1">
          <mxGeometry x="225" y="400" width="9" height="50" as="geometry" />
        </mxCell>
        <mxCell id="10ed09ecd0ef054a-80" value="" style="verticalLabelPosition=bottom;dashed=0;shadow=0;html=1;align=center;verticalAlign=top;strokeWidth=1;shape=mxgraph.cabinets.cb_1p;rounded=0;comic=0;labelBackgroundColor=none;fontFamily=Verdana;fontSize=12" parent="1" vertex="1">
          <mxGeometry x="234" y="400" width="9" height="50" as="geometry" />
        </mxCell>
        <mxCell id="10ed09ecd0ef054a-81" value="" style="verticalLabelPosition=bottom;dashed=0;shadow=0;html=1;align=center;verticalAlign=top;strokeWidth=1;shape=mxgraph.cabinets.cb_1p;rounded=0;comic=0;labelBackgroundColor=none;fontFamily=Verdana;fontSize=12" parent="1" vertex="1">
          <mxGeometry x="243" y="400" width="9" height="50" as="geometry" />
        </mxCell>
        <mxCell id="10ed09ecd0ef054a-82" value="" style="verticalLabelPosition=bottom;dashed=0;shadow=0;html=1;align=center;verticalAlign=top;strokeWidth=1;shape=mxgraph.cabinets.cb_1p;rounded=0;comic=0;labelBackgroundColor=none;fontFamily=Verdana;fontSize=12" parent="1" vertex="1">
          <mxGeometry x="252" y="400" width="9" height="50" as="geometry" />
        </mxCell>
        <mxCell id="10ed09ecd0ef054a-83" value="" style="verticalLabelPosition=bottom;dashed=0;shadow=0;html=1;align=center;verticalAlign=top;strokeWidth=1;shape=mxgraph.cabinets.cb_1p;rounded=0;comic=0;labelBackgroundColor=none;fontFamily=Verdana;fontSize=12" parent="1" vertex="1">
          <mxGeometry x="261" y="400" width="9" height="50" as="geometry" />
        </mxCell>
        <mxCell id="10ed09ecd0ef054a-84" value="" style="verticalLabelPosition=bottom;dashed=0;shadow=0;html=1;align=center;verticalAlign=top;strokeWidth=1;shape=mxgraph.cabinets.cb_1p;rounded=0;comic=0;labelBackgroundColor=none;fontFamily=Verdana;fontSize=12" parent="1" vertex="1">
          <mxGeometry x="270" y="400" width="9" height="50" as="geometry" />
        </mxCell>
        <mxCell id="10ed09ecd0ef054a-85" value="" style="verticalLabelPosition=bottom;dashed=0;shadow=0;html=1;align=center;verticalAlign=top;strokeWidth=1;shape=mxgraph.cabinets.cb_1p;rounded=0;comic=0;labelBackgroundColor=none;fontFamily=Verdana;fontSize=12" parent="1" vertex="1">
          <mxGeometry x="279" y="400" width="9" height="50" as="geometry" />
        </mxCell>
        <mxCell id="10ed09ecd0ef054a-86" value="" style="verticalLabelPosition=bottom;dashed=0;shadow=0;html=1;align=center;verticalAlign=top;strokeWidth=1;shape=mxgraph.cabinets.cb_1p;rounded=0;comic=0;labelBackgroundColor=none;fontFamily=Verdana;fontSize=12" parent="1" vertex="1">
          <mxGeometry x="288" y="400" width="9" height="50" as="geometry" />
        </mxCell>
        <mxCell id="10ed09ecd0ef054a-87" value="" style="verticalLabelPosition=bottom;dashed=0;shadow=0;html=1;align=center;verticalAlign=top;strokeWidth=1;shape=mxgraph.cabinets.cb_1p;rounded=0;comic=0;labelBackgroundColor=none;fontFamily=Verdana;fontSize=12" parent="1" vertex="1">
          <mxGeometry x="297" y="400" width="9" height="50" as="geometry" />
        </mxCell>
        <mxCell id="10ed09ecd0ef054a-88" value="" style="verticalLabelPosition=bottom;dashed=0;shadow=0;html=1;align=center;verticalAlign=top;strokeWidth=1;shape=mxgraph.cabinets.cb_1p;rounded=0;comic=0;labelBackgroundColor=none;fontFamily=Verdana;fontSize=12" parent="1" vertex="1">
          <mxGeometry x="306" y="400" width="9" height="50" as="geometry" />
        </mxCell>
        <mxCell id="10ed09ecd0ef054a-89" value="" style="verticalLabelPosition=bottom;dashed=0;shadow=0;html=1;align=center;verticalAlign=top;strokeWidth=1;shape=mxgraph.cabinets.cb_1p;rounded=0;comic=0;labelBackgroundColor=none;fontFamily=Verdana;fontSize=12" parent="1" vertex="1">
          <mxGeometry x="315" y="400" width="9" height="50" as="geometry" />
        </mxCell>
        <mxCell id="10ed09ecd0ef054a-90" value="" style="verticalLabelPosition=bottom;dashed=0;shadow=0;html=1;align=center;verticalAlign=top;strokeWidth=1;shape=mxgraph.cabinets.cb_1p;rounded=0;comic=0;labelBackgroundColor=none;fontFamily=Verdana;fontSize=12" parent="1" vertex="1">
          <mxGeometry x="324" y="400" width="9" height="50" as="geometry" />
        </mxCell>
        <mxCell id="10ed09ecd0ef054a-91" value="" style="verticalLabelPosition=bottom;dashed=0;shadow=0;html=1;align=center;verticalAlign=top;strokeWidth=1;shape=mxgraph.cabinets.cb_1p;rounded=0;comic=0;labelBackgroundColor=none;fontFamily=Verdana;fontSize=12" parent="1" vertex="1">
          <mxGeometry x="333" y="400" width="9" height="50" as="geometry" />
        </mxCell>
        <mxCell id="10ed09ecd0ef054a-92" value="" style="verticalLabelPosition=bottom;dashed=0;shadow=0;html=1;align=center;verticalAlign=top;strokeWidth=1;shape=mxgraph.cabinets.cb_1p;rounded=0;comic=0;labelBackgroundColor=none;fontFamily=Verdana;fontSize=12" parent="1" vertex="1">
          <mxGeometry x="342" y="400" width="9" height="50" as="geometry" />
        </mxCell>
        <mxCell id="10ed09ecd0ef054a-93" value="" style="verticalLabelPosition=bottom;dashed=0;shadow=0;html=1;align=center;verticalAlign=top;strokeWidth=1;shape=mxgraph.cabinets.cb_1p;rounded=0;comic=0;labelBackgroundColor=none;fontFamily=Verdana;fontSize=12" parent="1" vertex="1">
          <mxGeometry x="351" y="400" width="9" height="50" as="geometry" />
        </mxCell>
        <mxCell id="10ed09ecd0ef054a-94" value="" style="verticalLabelPosition=bottom;dashed=0;shadow=0;html=1;align=center;verticalAlign=top;strokeWidth=1;shape=mxgraph.cabinets.cb_1p;rounded=0;comic=0;labelBackgroundColor=none;fontFamily=Verdana;fontSize=12" parent="1" vertex="1">
          <mxGeometry x="360" y="400" width="9" height="50" as="geometry" />
        </mxCell>
        <mxCell id="10ed09ecd0ef054a-95" value="" style="verticalLabelPosition=bottom;dashed=0;shadow=0;html=1;align=center;verticalAlign=top;strokeWidth=1;shape=mxgraph.cabinets.cb_1p;rounded=0;comic=0;labelBackgroundColor=none;fontFamily=Verdana;fontSize=12" parent="1" vertex="1">
          <mxGeometry x="369" y="400" width="9" height="50" as="geometry" />
        </mxCell>
        <mxCell id="10ed09ecd0ef054a-96" value="" style="verticalLabelPosition=bottom;dashed=0;shadow=0;html=1;align=center;verticalAlign=top;strokeWidth=1;shape=mxgraph.cabinets.cb_1p;rounded=0;comic=0;labelBackgroundColor=none;fontFamily=Verdana;fontSize=12" parent="1" vertex="1">
          <mxGeometry x="378" y="400" width="9" height="50" as="geometry" />
        </mxCell>
        <mxCell id="10ed09ecd0ef054a-97" value="" style="verticalLabelPosition=bottom;dashed=0;shadow=0;html=1;align=center;verticalAlign=top;strokeWidth=1;shape=mxgraph.cabinets.cb_1p;rounded=0;comic=0;labelBackgroundColor=none;fontFamily=Verdana;fontSize=12" parent="1" vertex="1">
          <mxGeometry x="387" y="400" width="9" height="50" as="geometry" />
        </mxCell>
        <mxCell id="10ed09ecd0ef054a-98" value="60x40" style="shape=rect;dashed=0;shadow=0;html=1;whiteSpace=wrap;rounded=0;comic=0;labelBackgroundColor=none;strokeWidth=1;fontFamily=Verdana;fontSize=12;align=center;rotation=-90;" parent="1" vertex="1">
          <mxGeometry x="185" y="588" width="225" height="30" as="geometry" />
        </mxCell>
        <mxCell id="10ed09ecd0ef054a-99" value="40x40" style="shape=rect;dashed=0;shadow=0;html=1;whiteSpace=wrap;rounded=0;comic=0;labelBackgroundColor=none;strokeWidth=1;fontFamily=Verdana;fontSize=12;align=center;" parent="1" vertex="1">
          <mxGeometry x="121" y="591" width="161" height="20" as="geometry" />
        </mxCell>
        <mxCell id="10ed09ecd0ef054a-101" value="" style="verticalLabelPosition=bottom;dashed=0;shadow=0;html=1;align=center;verticalAlign=top;strokeWidth=1;shape=mxgraph.cabinets.cb_1p;rounded=0;comic=0;labelBackgroundColor=none;fontFamily=Verdana;fontSize=12" parent="1" vertex="1">
          <mxGeometry x="122" y="520" width="9" height="50" as="geometry" />
        </mxCell>
        <mxCell id="10ed09ecd0ef054a-102" value="" style="verticalLabelPosition=bottom;dashed=0;shadow=0;html=1;align=center;verticalAlign=top;strokeWidth=1;shape=mxgraph.cabinets.cb_1p;rounded=0;comic=0;labelBackgroundColor=none;fontFamily=Verdana;fontSize=12" parent="1" vertex="1">
          <mxGeometry x="131" y="520" width="9" height="50" as="geometry" />
        </mxCell>
        <mxCell id="10ed09ecd0ef054a-103" value="" style="verticalLabelPosition=bottom;dashed=0;shadow=0;html=1;align=center;verticalAlign=top;strokeWidth=1;shape=mxgraph.cabinets.cb_1p;rounded=0;comic=0;labelBackgroundColor=none;fontFamily=Verdana;fontSize=12" parent="1" vertex="1">
          <mxGeometry x="140" y="520" width="9" height="50" as="geometry" />
        </mxCell>
        <mxCell id="10ed09ecd0ef054a-104" value="" style="verticalLabelPosition=bottom;dashed=0;shadow=0;html=1;align=center;verticalAlign=top;strokeWidth=1;shape=mxgraph.cabinets.cb_1p;rounded=0;comic=0;labelBackgroundColor=none;fontFamily=Verdana;fontSize=12" parent="1" vertex="1">
          <mxGeometry x="149" y="520" width="9" height="50" as="geometry" />
        </mxCell>
        <mxCell id="10ed09ecd0ef054a-105" value="" style="verticalLabelPosition=bottom;dashed=0;shadow=0;html=1;align=center;verticalAlign=top;strokeWidth=1;shape=mxgraph.cabinets.cb_1p;rounded=0;comic=0;labelBackgroundColor=none;fontFamily=Verdana;fontSize=12" parent="1" vertex="1">
          <mxGeometry x="158" y="520" width="9" height="50" as="geometry" />
        </mxCell>
        <mxCell id="10ed09ecd0ef054a-106" value="" style="verticalLabelPosition=bottom;dashed=0;shadow=0;html=1;align=center;verticalAlign=top;strokeWidth=1;shape=mxgraph.cabinets.cb_1p;rounded=0;comic=0;labelBackgroundColor=none;fontFamily=Verdana;fontSize=12" parent="1" vertex="1">
          <mxGeometry x="167" y="520" width="9" height="50" as="geometry" />
        </mxCell>
        <mxCell id="10ed09ecd0ef054a-107" value="" style="verticalLabelPosition=bottom;dashed=0;shadow=0;html=1;align=center;verticalAlign=top;strokeWidth=1;shape=mxgraph.cabinets.cb_1p;rounded=0;comic=0;labelBackgroundColor=none;fontFamily=Verdana;fontSize=12" parent="1" vertex="1">
          <mxGeometry x="176" y="520" width="9" height="50" as="geometry" />
        </mxCell>
        <mxCell id="10ed09ecd0ef054a-108" value="" style="verticalLabelPosition=bottom;dashed=0;shadow=0;html=1;align=center;verticalAlign=top;strokeWidth=1;shape=mxgraph.cabinets.cb_1p;rounded=0;comic=0;labelBackgroundColor=none;fontFamily=Verdana;fontSize=12" parent="1" vertex="1">
          <mxGeometry x="185" y="520" width="9" height="50" as="geometry" />
        </mxCell>
        <mxCell id="10ed09ecd0ef054a-109" value="" style="verticalLabelPosition=bottom;dashed=0;shadow=0;html=1;align=center;verticalAlign=top;strokeWidth=1;shape=mxgraph.cabinets.cb_1p;rounded=0;comic=0;labelBackgroundColor=none;fontFamily=Verdana;fontSize=12" parent="1" vertex="1">
          <mxGeometry x="194" y="520" width="9" height="50" as="geometry" />
        </mxCell>
        <mxCell id="10ed09ecd0ef054a-110" value="" style="verticalLabelPosition=bottom;dashed=0;shadow=0;html=1;align=center;verticalAlign=top;strokeWidth=1;shape=mxgraph.cabinets.cb_1p;rounded=0;comic=0;labelBackgroundColor=none;fontFamily=Verdana;fontSize=12" parent="1" vertex="1">
          <mxGeometry x="203" y="520" width="9" height="50" as="geometry" />
        </mxCell>
        <mxCell id="10ed09ecd0ef054a-111" value="" style="verticalLabelPosition=bottom;dashed=0;shadow=0;html=1;align=center;verticalAlign=top;strokeWidth=1;shape=mxgraph.cabinets.cb_1p;rounded=0;comic=0;labelBackgroundColor=none;fontFamily=Verdana;fontSize=12" parent="1" vertex="1">
          <mxGeometry x="212" y="520" width="9" height="50" as="geometry" />
        </mxCell>
        <mxCell id="10ed09ecd0ef054a-112" value="" style="verticalLabelPosition=bottom;dashed=0;shadow=0;html=1;align=center;verticalAlign=top;strokeWidth=1;shape=mxgraph.cabinets.cb_1p;rounded=0;comic=0;labelBackgroundColor=none;fontFamily=Verdana;fontSize=12" parent="1" vertex="1">
          <mxGeometry x="221" y="520" width="9" height="50" as="geometry" />
        </mxCell>
        <mxCell id="10ed09ecd0ef054a-113" value="" style="verticalLabelPosition=bottom;dashed=0;shadow=0;html=1;align=center;verticalAlign=top;strokeWidth=1;shape=mxgraph.cabinets.cb_1p;rounded=0;comic=0;labelBackgroundColor=none;fontFamily=Verdana;fontSize=12" parent="1" vertex="1">
          <mxGeometry x="230" y="520" width="9" height="50" as="geometry" />
        </mxCell>
        <mxCell id="10ed09ecd0ef054a-114" value="" style="verticalLabelPosition=bottom;dashed=0;shadow=0;html=1;align=center;verticalAlign=top;strokeWidth=1;shape=mxgraph.cabinets.cb_1p;rounded=0;comic=0;labelBackgroundColor=none;fontFamily=Verdana;fontSize=12" parent="1" vertex="1">
          <mxGeometry x="239" y="520" width="9" height="50" as="geometry" />
        </mxCell>
        <mxCell id="10ed09ecd0ef054a-115" value="" style="verticalLabelPosition=bottom;dashed=0;shadow=0;html=1;align=center;verticalAlign=top;strokeWidth=1;shape=mxgraph.cabinets.cb_1p;rounded=0;comic=0;labelBackgroundColor=none;fontFamily=Verdana;fontSize=12" parent="1" vertex="1">
          <mxGeometry x="248" y="520" width="9" height="50" as="geometry" />
        </mxCell>
        <mxCell id="10ed09ecd0ef054a-116" value="" style="verticalLabelPosition=bottom;dashed=0;shadow=0;html=1;align=center;verticalAlign=top;strokeWidth=1;shape=mxgraph.cabinets.cb_1p;rounded=0;comic=0;labelBackgroundColor=none;fontFamily=Verdana;fontSize=12" parent="1" vertex="1">
          <mxGeometry x="257" y="520" width="9" height="50" as="geometry" />
        </mxCell>
        <mxCell id="10ed09ecd0ef054a-117" value="" style="verticalLabelPosition=bottom;dashed=0;shadow=0;html=1;align=center;verticalAlign=top;strokeWidth=1;shape=mxgraph.cabinets.cb_1p;rounded=0;comic=0;labelBackgroundColor=none;fontFamily=Verdana;fontSize=12" parent="1" vertex="1">
          <mxGeometry x="266" y="520" width="9" height="50" as="geometry" />
        </mxCell>
        <mxCell id="10ed09ecd0ef054a-118" value="" style="verticalLabelPosition=bottom;dashed=0;shadow=0;html=1;align=center;verticalAlign=top;strokeWidth=1;shape=mxgraph.cabinets.cb_1p;rounded=0;comic=0;labelBackgroundColor=none;fontFamily=Verdana;fontSize=12" parent="1" vertex="1">
          <mxGeometry x="122" y="640" width="9" height="50" as="geometry" />
        </mxCell>
        <mxCell id="10ed09ecd0ef054a-119" value="" style="verticalLabelPosition=bottom;dashed=0;shadow=0;html=1;align=center;verticalAlign=top;strokeWidth=1;shape=mxgraph.cabinets.cb_1p;rounded=0;comic=0;labelBackgroundColor=none;fontFamily=Verdana;fontSize=12" parent="1" vertex="1">
          <mxGeometry x="131" y="640" width="9" height="50" as="geometry" />
        </mxCell>
        <mxCell id="10ed09ecd0ef054a-120" value="" style="verticalLabelPosition=bottom;dashed=0;shadow=0;html=1;align=center;verticalAlign=top;strokeWidth=1;shape=mxgraph.cabinets.cb_1p;rounded=0;comic=0;labelBackgroundColor=none;fontFamily=Verdana;fontSize=12" parent="1" vertex="1">
          <mxGeometry x="140" y="640" width="9" height="50" as="geometry" />
        </mxCell>
        <mxCell id="10ed09ecd0ef054a-121" value="" style="verticalLabelPosition=bottom;dashed=0;shadow=0;html=1;align=center;verticalAlign=top;strokeWidth=1;shape=mxgraph.cabinets.cb_1p;rounded=0;comic=0;labelBackgroundColor=none;fontFamily=Verdana;fontSize=12" parent="1" vertex="1">
          <mxGeometry x="149" y="640" width="9" height="50" as="geometry" />
        </mxCell>
        <mxCell id="10ed09ecd0ef054a-122" value="" style="verticalLabelPosition=bottom;dashed=0;shadow=0;html=1;align=center;verticalAlign=top;strokeWidth=1;shape=mxgraph.cabinets.cb_1p;rounded=0;comic=0;labelBackgroundColor=none;fontFamily=Verdana;fontSize=12" parent="1" vertex="1">
          <mxGeometry x="158" y="640" width="9" height="50" as="geometry" />
        </mxCell>
        <mxCell id="10ed09ecd0ef054a-123" value="" style="verticalLabelPosition=bottom;dashed=0;shadow=0;html=1;align=center;verticalAlign=top;strokeWidth=1;shape=mxgraph.cabinets.cb_1p;rounded=0;comic=0;labelBackgroundColor=none;fontFamily=Verdana;fontSize=12" parent="1" vertex="1">
          <mxGeometry x="167" y="640" width="9" height="50" as="geometry" />
        </mxCell>
        <mxCell id="10ed09ecd0ef054a-124" value="" style="verticalLabelPosition=bottom;dashed=0;shadow=0;html=1;align=center;verticalAlign=top;strokeWidth=1;shape=mxgraph.cabinets.cb_1p;rounded=0;comic=0;labelBackgroundColor=none;fontFamily=Verdana;fontSize=12" parent="1" vertex="1">
          <mxGeometry x="176" y="640" width="9" height="50" as="geometry" />
        </mxCell>
        <mxCell id="10ed09ecd0ef054a-125" value="" style="verticalLabelPosition=bottom;dashed=0;shadow=0;html=1;align=center;verticalAlign=top;strokeWidth=1;shape=mxgraph.cabinets.cb_1p;rounded=0;comic=0;labelBackgroundColor=none;fontFamily=Verdana;fontSize=12" parent="1" vertex="1">
          <mxGeometry x="185" y="640" width="9" height="50" as="geometry" />
        </mxCell>
        <mxCell id="10ed09ecd0ef054a-126" value="" style="verticalLabelPosition=bottom;dashed=0;shadow=0;html=1;align=center;verticalAlign=top;strokeWidth=1;shape=mxgraph.cabinets.cb_1p;rounded=0;comic=0;labelBackgroundColor=none;fontFamily=Verdana;fontSize=12" parent="1" vertex="1">
          <mxGeometry x="194" y="640" width="9" height="50" as="geometry" />
        </mxCell>
        <mxCell id="10ed09ecd0ef054a-127" value="" style="verticalLabelPosition=bottom;dashed=0;shadow=0;html=1;align=center;verticalAlign=top;strokeWidth=1;shape=mxgraph.cabinets.cb_1p;rounded=0;comic=0;labelBackgroundColor=none;fontFamily=Verdana;fontSize=12" parent="1" vertex="1">
          <mxGeometry x="203" y="640" width="9" height="50" as="geometry" />
        </mxCell>
        <mxCell id="10ed09ecd0ef054a-128" value="" style="verticalLabelPosition=bottom;dashed=0;shadow=0;html=1;align=center;verticalAlign=top;strokeWidth=1;shape=mxgraph.cabinets.cb_1p;rounded=0;comic=0;labelBackgroundColor=none;fontFamily=Verdana;fontSize=12" parent="1" vertex="1">
          <mxGeometry x="212" y="640" width="9" height="50" as="geometry" />
        </mxCell>
        <mxCell id="10ed09ecd0ef054a-129" value="" style="verticalLabelPosition=bottom;dashed=0;shadow=0;html=1;align=center;verticalAlign=top;strokeWidth=1;shape=mxgraph.cabinets.cb_1p;rounded=0;comic=0;labelBackgroundColor=none;fontFamily=Verdana;fontSize=12" parent="1" vertex="1">
          <mxGeometry x="221" y="640" width="9" height="50" as="geometry" />
        </mxCell>
        <mxCell id="10ed09ecd0ef054a-130" value="" style="verticalLabelPosition=bottom;dashed=0;shadow=0;html=1;align=center;verticalAlign=top;strokeWidth=1;shape=mxgraph.cabinets.cb_1p;rounded=0;comic=0;labelBackgroundColor=none;fontFamily=Verdana;fontSize=12" parent="1" vertex="1">
          <mxGeometry x="230" y="640" width="9" height="50" as="geometry" />
        </mxCell>
        <mxCell id="10ed09ecd0ef054a-131" value="" style="verticalLabelPosition=bottom;dashed=0;shadow=0;html=1;align=center;verticalAlign=top;strokeWidth=1;shape=mxgraph.cabinets.cb_1p;rounded=0;comic=0;labelBackgroundColor=none;fontFamily=Verdana;fontSize=12" parent="1" vertex="1">
          <mxGeometry x="239" y="640" width="9" height="50" as="geometry" />
        </mxCell>
        <mxCell id="10ed09ecd0ef054a-132" value="" style="verticalLabelPosition=bottom;dashed=0;shadow=0;html=1;align=center;verticalAlign=top;strokeWidth=1;shape=mxgraph.cabinets.cb_1p;rounded=0;comic=0;labelBackgroundColor=none;fontFamily=Verdana;fontSize=12" parent="1" vertex="1">
          <mxGeometry x="248" y="640" width="9" height="50" as="geometry" />
        </mxCell>
        <mxCell id="10ed09ecd0ef054a-133" value="" style="verticalLabelPosition=bottom;dashed=0;shadow=0;html=1;align=center;verticalAlign=top;strokeWidth=1;shape=mxgraph.cabinets.cb_1p;rounded=0;comic=0;labelBackgroundColor=none;fontFamily=Verdana;fontSize=12" parent="1" vertex="1">
          <mxGeometry x="257" y="640" width="9" height="50" as="geometry" />
        </mxCell>
        <mxCell id="10ed09ecd0ef054a-134" value="" style="verticalLabelPosition=bottom;dashed=0;shadow=0;html=1;align=center;verticalAlign=top;strokeWidth=1;shape=mxgraph.cabinets.cb_1p;rounded=0;comic=0;labelBackgroundColor=none;fontFamily=Verdana;fontSize=12" parent="1" vertex="1">
          <mxGeometry x="266" y="640" width="9" height="50" as="geometry" />
        </mxCell>
        <mxCell id="mRYTLFVXUEYdrN0TS-By-1" value="" style="verticalLabelPosition=bottom;dashed=0;shadow=0;html=1;align=center;verticalAlign=top;strokeWidth=1;shape=mxgraph.cabinets.cb_3p;rounded=0;comic=0;labelBackgroundColor=none;fontFamily=Verdana;fontSize=12" parent="1" vertex="1">
          <mxGeometry x="324" y="90" width="27" height="50" as="geometry" />
        </mxCell>
        <mxCell id="mRYTLFVXUEYdrN0TS-By-6" value="" style="edgeStyle=orthogonalEdgeStyle;rounded=0;orthogonalLoop=1;jettySize=auto;html=1;entryX=0.614;entryY=0.519;entryDx=0;entryDy=0;entryPerimeter=0;exitX=0.471;exitY=0.89;exitDx=0;exitDy=0;exitPerimeter=0;" parent="1" target="10ed09ecd0ef054a-97" edge="1">
          <mxGeometry relative="1" as="geometry">
            <mxPoint x="409.9999999999999" y="340" as="sourcePoint" />
            <mxPoint x="369.05899999999997" y="425.75" as="targetPoint" />
            <Array as="points">
              <mxPoint x="410" y="388" />
              <mxPoint x="390" y="388" />
              <mxPoint x="390" y="426" />
            </Array>
          </mxGeometry>
        </mxCell>
        <mxCell id="mRYTLFVXUEYdrN0TS-By-7" value="" style="edgeStyle=orthogonalEdgeStyle;rounded=0;orthogonalLoop=1;jettySize=auto;html=1;entryX=0.46;entryY=0.567;entryDx=0;entryDy=0;entryPerimeter=0;" parent="1" target="10ed09ecd0ef054a-68" edge="1">
          <mxGeometry relative="1" as="geometry">
            <mxPoint x="143" y="340" as="sourcePoint" />
            <mxPoint x="243" y="422" as="targetPoint" />
            <Array as="points">
              <mxPoint x="143" y="422" />
              <mxPoint x="130" y="422" />
            </Array>
          </mxGeometry>
        </mxCell>
        <mxCell id="DFELT6ClK_l1hKSo2iNa-1" value="Provider1" style="rounded=0;whiteSpace=wrap;html=1;" vertex="1" parent="1">
          <mxGeometry x="143" y="500" width="100" height="20" as="geometry" />
        </mxCell>
        <mxCell id="DFELT6ClK_l1hKSo2iNa-2" value="Provider2&lt;br&gt;" style="rounded=0;whiteSpace=wrap;html=1;" vertex="1" parent="1">
          <mxGeometry x="143" y="618" width="100" height="20" as="geometry" />
        </mxCell>
      </root>
    </mxGraphModel>
  </diagram>
</mxfile>
